<svg width="39" height="48" viewBox="0 0 39 48" fill="none" xmlns="http://www.w3.org/2000/svg">
<path d="M25.9241 30.4627C25.9241 30.4627 23.3657 29.885 24.5769 27.3342C26.0731 25.3255 26.9824 23.0467 27.0551 22.3014C27.0551 22.3014 29.3581 20.4884 29.4923 17.7662C29.6357 15.0513 28.9873 14.9246 28.9873 14.9246C29.9562 11.9638 30.2693 0.851146 23.1347 2.17781C21.9459 -0.153171 14.4927 -1.98106 11.0177 4.2293C9.28667 7.3261 8.64197 11.5539 9.99473 15.0029C9.94442 15.26 9.51586 14.7513 9.35934 16.3463C9.20841 17.8835 9.90156 20.0878 10.6543 21.1089C10.9823 21.5393 11.5059 21.8542 11.8729 22.0145C11.8729 22.0145 12.3238 24.7535 14.4611 27.3342C14.953 29.3819 12.9201 30.4627 12.9201 30.4627C6.18801 31.7576 0 35.4954 0 39.5388V42.671C0 47.059 10.2202 48 19.4174 48C28.6165 48 38.7678 45.356 38.7678 42.671V39.5388C38.7678 35.4954 32.6524 31.7576 25.9241 30.4627ZM31.5102 44.592H22.1937V39.0021H31.5102V44.592Z" fill="white"/>
</svg>
