<svg width="48" height="48" viewBox="0 0 48 48" fill="none" xmlns="http://www.w3.org/2000/svg">
<path d="M13.371 36.75L19.7565 30.3645L17.6355 28.2435L11.25 34.629L10.0605 33.4395C9.77919 33.1583 9.39773 33.0003 8.99998 33.0003C8.60224 33.0003 8.22078 33.1583 7.93948 33.4395L1.93948 39.4395C1.65828 39.7208 1.50031 40.1023 1.50031 40.5C1.50031 40.8978 1.65828 41.2792 1.93948 41.5605L6.43948 46.0605C6.72078 46.3417 7.10224 46.4997 7.49998 46.4997C7.89773 46.4997 8.27919 46.3417 8.56048 46.0605L14.5605 40.0605C14.8417 39.7792 14.9997 39.3978 14.9997 39C14.9997 38.6023 14.8417 38.2208 14.5605 37.9395L13.371 36.75ZM7.49998 42.879L5.12098 40.5L8.99998 36.621L11.379 39L7.49998 42.879Z" fill="white"/>
<path d="M36 45C33.6139 44.9973 31.3263 44.0482 29.6391 42.3609C27.9519 40.6737 27.0028 38.3861 27 36C27.0007 35.2159 27.1066 34.4355 27.315 33.6795L14.322 20.685C13.5656 20.8934 12.7846 20.9994 12 21C10.5337 21.0059 9.08825 20.6519 7.79052 19.9692C6.4928 19.2864 5.38238 18.2958 4.55662 17.084C3.73086 15.8722 3.21499 14.4764 3.05422 13.0189C2.89346 11.5614 3.09271 10.0866 3.63451 8.72403L4.47151 6.59253L9.43951 11.5605C9.72499 11.8331 10.1045 11.9853 10.4993 11.9853C10.894 11.9853 11.2735 11.8331 11.559 11.5605C11.6984 11.4214 11.809 11.256 11.8845 11.0741C11.96 10.8921 11.9988 10.697 11.9988 10.5C11.9988 10.303 11.96 10.108 11.8845 9.92599C11.809 9.74402 11.6984 9.57872 11.559 9.43954L6.59251 4.46853L8.72701 3.63303C10.0896 3.0922 11.564 2.89374 13.0211 3.05505C14.4782 3.21637 15.8735 3.73252 17.0848 4.5583C18.2961 5.38409 19.2864 6.4943 19.969 7.79169C20.6515 9.08908 21.0056 10.5341 21 12C20.9993 12.7841 20.8934 13.5646 20.685 14.3205L33.6795 27.315C34.4355 27.1069 35.2159 27.001 36 27C37.4664 26.9942 38.9118 27.3481 40.2095 28.0309C41.5072 28.7136 42.6176 29.7043 43.4434 30.9161C44.2692 32.1278 44.785 33.5237 44.9458 34.9812C45.1066 36.4387 44.9073 37.9134 44.3655 39.276L43.53 41.4075L38.5605 36.4395C38.275 36.1669 37.8955 36.0148 37.5008 36.0148C37.106 36.0148 36.7265 36.1669 36.441 36.4395C36.3015 36.5786 36.1908 36.7439 36.1152 36.9258C36.0396 37.1077 36.0006 37.3027 36.0005 37.4997C36.0003 37.6967 36.039 37.8918 36.1144 38.0739C36.1897 38.2559 36.3002 38.4213 36.4395 38.5605L41.409 43.53L39.276 44.367C38.2334 44.7818 37.1221 44.9965 36 45ZM15.093 17.214L30.7845 32.9055L30.426 33.8205C30.0747 34.6988 29.9374 35.648 30.0254 36.5898C30.1134 37.5316 30.4242 38.4389 30.9321 39.2369C31.44 40.0348 32.1305 40.7004 32.9465 41.1788C33.7625 41.6572 34.6806 41.9346 35.625 41.988L34.3185 40.683C33.9006 40.2652 33.569 39.7691 33.3428 39.223C33.1166 38.677 33.0002 38.0918 33.0002 37.5008C33.0002 36.9098 33.1166 36.3246 33.3428 35.7785C33.569 35.2325 33.9006 34.7364 34.3185 34.3185C35.1758 33.5 36.3155 33.0432 37.5008 33.0432C38.686 33.0432 39.8258 33.5 40.683 34.3185L41.988 35.625C41.9343 34.6806 41.6567 33.7625 41.1782 32.9465C40.6996 32.1305 40.0338 31.4401 39.2358 30.9322C38.4377 30.4243 37.5303 30.1135 36.5885 30.0255C35.6466 29.9375 34.6973 30.0748 33.819 30.426L32.9055 30.7845L17.2155 15.0945L17.5755 14.1795C17.9269 13.3012 18.0642 12.3519 17.9761 11.41C17.888 10.4681 17.5771 9.56063 17.069 8.76265C16.5609 7.96467 15.8702 7.29905 15.054 6.82076C14.2378 6.34248 13.3195 6.06527 12.375 6.01203L13.68 7.31703C14.098 7.73491 14.4295 8.23102 14.6557 8.77703C14.8819 9.32305 14.9983 9.90827 14.9983 10.4993C14.9983 11.0903 14.8819 11.6755 14.6557 12.2215C14.4295 12.7676 14.098 13.2637 13.68 13.6815C12.8228 14.5001 11.683 14.9568 10.4978 14.9568C9.31247 14.9568 8.17276 14.5001 7.31551 13.6815L6.01051 12.375C6.06397 13.3194 6.34135 14.2375 6.81972 15.0535C7.2981 15.8695 7.96376 16.56 8.7617 17.068C9.55965 17.5759 10.467 17.8867 11.4088 17.9747C12.3506 18.0627 13.2998 17.9254 14.178 17.574L15.093 17.214Z" fill="white"/>
<path d="M43.6845 4.27505C42.8272 3.45649 41.6875 2.99976 40.5023 2.99976C39.317 2.99976 38.1773 3.45649 37.32 4.27505L26.1 15.495L28.221 17.616L39.441 6.39605C39.7267 6.12334 40.1065 5.97119 40.5015 5.97119C40.8965 5.97119 41.2763 6.12334 41.562 6.39605C41.8425 6.67773 41.9999 7.05904 41.9999 7.45655C41.9999 7.85405 41.8425 8.23537 41.562 8.51705L30.342 19.737L32.463 21.8595L43.683 10.6395C44.526 9.79503 44.9994 8.65054 44.9994 7.4573C44.9994 6.26405 44.5275 5.11957 43.6845 4.27505Z" fill="white"/>
</svg>
