<svg width="36" height="48" viewBox="0 0 36 48" fill="none" xmlns="http://www.w3.org/2000/svg">
<mask id="mask0_17_12" style="mask-type:luminance" maskUnits="userSpaceOnUse" x="0" y="0" width="36" height="48">
<path d="M18 48C18 48 36 33.6 36 18C36 8.0592 27.9408 0 18 0C8.0592 0 0 8.0592 0 18C0 33.6 18 48 18 48Z" fill="white"/>
<path d="M17.9998 25.1998C18.9453 25.1998 19.8816 25.0136 20.7551 24.6517C21.6287 24.2899 22.4224 23.7596 23.091 23.091C23.7596 22.4224 24.2899 21.6287 24.6517 20.7551C25.0136 19.8816 25.1998 18.9453 25.1998 17.9998C25.1998 17.0543 25.0136 16.118 24.6517 15.2445C24.2899 14.3709 23.7596 13.5772 23.091 12.9086C22.4224 12.2401 21.6287 11.7097 20.7551 11.3479C19.8816 10.986 18.9453 10.7998 17.9998 10.7998C16.0902 10.7998 14.2589 11.5584 12.9086 12.9086C11.5584 14.2589 10.7998 16.0902 10.7998 17.9998C10.7998 19.9094 11.5584 21.7407 12.9086 23.091C14.2589 24.4412 16.0902 25.1998 17.9998 25.1998Z" fill="black"/>
</mask>
<g mask="url(#mask0_17_12)">
<path d="M-10.7998 -4.7998H46.8002V52.8002H-10.7998V-4.7998Z" fill="white"/>
</g>
</svg>
